<?xml version="1.0" encoding="UTF-8"?>
<svg width="17px" height="30px" viewBox="0 0 17 30" version="1.1" xmlns="http://www.w3.org/2000/svg" xmlns:xlink="http://www.w3.org/1999/xlink">
    <title>secondary next step copy</title>
    <g id="Symbols" stroke="none" stroke-width="1" fill="none" fill-rule="evenodd">
        <g id="player-UI-(swiper)-scaled--dynamic-pagination" transform="translate(-312.000000, -20.000000)" fill="#444444">
            <g id="Fill-2920" transform="translate(311.511111, 19.000000)">
                <path d="M23.2792307,9.06515695 L21.8900721,7.69364651 C21.5006077,7.30912992 20.8743923,7.30912992 20.4849279,7.69364651 L9,19.0326679 L9,19.0326679 L-2.48492789,7.69364651 C-2.8743923,7.30912992 -3.5006077,7.30912992 -3.89007211,7.69364651 L-5.27923066,9.06515695 C-5.67224343,9.45317681 -5.67629097,10.0863289 -5.28827111,10.4793416 C-5.28527692,10.4823743 -5.28226338,10.4853879 -5.27923066,10.4883821 L8.29742789,23.8925604 C8.6868923,24.277077 9.3131077,24.277077 9.70257211,23.8925604 L23.2792307,10.4883821 C23.6722434,10.1003622 23.676291,9.46721017 23.2882711,9.0741974 C23.2852769,9.07116469 23.2822634,9.06815114 23.2792307,9.06515695 Z" transform="translate(9.000000, 15.793103) rotate(90.000000) translate(-9.000000, -15.793103) "></path>
            </g>
        </g>
    </g>
</svg>