<?xml version="1.0" encoding="UTF-8"?>
<svg width="24px" height="17px" viewBox="0 0 24 17" version="1.1" xmlns="http://www.w3.org/2000/svg" xmlns:xlink="http://www.w3.org/1999/xlink">
    <title>full screen</title>
    <g id="Symbols" stroke="none" stroke-width="1" fill="none" fill-rule="evenodd">
        <g id="player-UI-(swiper)-scaled" transform="translate(-788.000000, -9.000000)">
            <g id="Group-3" transform="translate(761.000000, 9.000000)">
                <g id="Group-2" transform="translate(27.000000, 0.000000)">
                    <rect id="Rectangle" stroke="#FFFFFF" stroke-width="1.5" x="5.28333333" y="3.84375" width="13.4333333" height="8.8125" rx="1"></rect>
                    <g id="Group" fill="#FFFFFF">
                        <path d="M1.26666667,0 L6.4265625,0 C6.85372024,3.25546993e-17 7.2,0.346279764 7.2,0.7734375 C7.2,1.20059524 6.85372024,1.546875 6.4265625,1.546875 L0.266666667,1.546875 L0.266666667,1.546875 L0.266666667,1 C0.266666667,0.44771525 0.714381917,1.01453063e-16 1.26666667,0 Z" id="Rectangle"></path>
                        <path d="M-1.25364583,2.0359375 L2.58697917,2.0359375 C3.02880697,2.0359375 3.38697917,2.3941097 3.38697917,2.8359375 C3.38697917,3.2777653 3.02880697,3.6359375 2.58697917,3.6359375 L-1.25364583,3.6359375 L-1.25364583,3.6359375 L-1.25364583,2.0359375 Z" id="Rectangle-Copy" transform="translate(1.066667, 2.835938) rotate(90.000000) translate(-1.066667, -2.835938) "></path>
                    </g>
                    <g id="Group-Copy-2" transform="translate(3.733333, 13.921875) scale(1, -1) translate(-3.733333, -13.921875) translate(0.266667, 11.343750)" fill="#FFFFFF">
                        <path d="M1,0 L6.15989583,0 C6.58705357,3.25546993e-17 6.93333333,0.346279764 6.93333333,0.7734375 C6.93333333,1.20059524 6.58705357,1.546875 6.15989583,1.546875 L0,1.546875 L0,1.546875 L0,1 C-6.76353751e-17,0.44771525 0.44771525,1.01453063e-16 1,0 Z" id="Rectangle"></path>
                        <path d="M-1.5203125,2.0359375 L2.3203125,2.0359375 C2.7621403,2.0359375 3.1203125,2.3941097 3.1203125,2.8359375 C3.1203125,3.2777653 2.7621403,3.6359375 2.3203125,3.6359375 L-1.5203125,3.6359375 L-1.5203125,3.6359375 L-1.5203125,2.0359375 Z" id="Rectangle-Copy" transform="translate(0.800000, 2.835937) rotate(90.000000) translate(-0.800000, -2.835937) "></path>
                    </g>
                    <g id="Group-Copy" transform="translate(20.000000, 3.000000) scale(-1, 1) translate(-20.000000, -3.000000) translate(16.000000, 0.000000)" fill="#FFFFFF">
                        <path d="M1.26666667,0 L6.4265625,0 C6.85372024,-5.8725374e-16 7.2,0.346279764 7.2,0.7734375 C7.2,1.20059524 6.85372024,1.546875 6.4265625,1.546875 L0.266666667,1.546875 L0.266666667,1.546875 L0.266666667,1 C0.266666667,0.44771525 0.714381917,1.01453063e-16 1.26666667,0 Z" id="Rectangle"></path>
                        <path d="M-1.25364583,2.0359375 L2.58697917,2.0359375 C3.02880697,2.0359375 3.38697917,2.3941097 3.38697917,2.8359375 C3.38697917,3.2777653 3.02880697,3.6359375 2.58697917,3.6359375 L-1.25364583,3.6359375 L-1.25364583,3.6359375 L-1.25364583,2.0359375 Z" id="Rectangle-Copy" transform="translate(1.066667, 2.835938) rotate(90.000000) translate(-1.066667, -2.835938) "></path>
                    </g>
                    <g id="Group-Copy-3" transform="translate(20.000000, 13.500000) scale(-1, -1) translate(-20.000000, -13.500000) translate(16.000000, 10.500000)" fill="#FFFFFF">
                        <path d="M1.26666667,0 L6.4265625,0 C6.85372024,-5.8725374e-16 7.2,0.346279764 7.2,0.7734375 C7.2,1.20059524 6.85372024,1.546875 6.4265625,1.546875 L0.266666667,1.546875 L0.266666667,1.546875 L0.266666667,1 C0.266666667,0.44771525 0.714381917,1.01453063e-16 1.26666667,0 Z" id="Rectangle"></path>
                        <path d="M-1.25364583,2.0359375 L2.58697917,2.0359375 C3.02880697,2.0359375 3.38697917,2.3941097 3.38697917,2.8359375 C3.38697917,3.2777653 3.02880697,3.6359375 2.58697917,3.6359375 L-1.25364583,3.6359375 L-1.25364583,3.6359375 L-1.25364583,2.0359375 Z" id="Rectangle-Copy" transform="translate(1.066667, 2.835938) rotate(90.000000) translate(-1.066667, -2.835938) "></path>
                    </g>
                </g>
            </g>
        </g>
    </g>
</svg>