<?xml version="1.0" encoding="UTF-8"?>
<svg width="48px" height="33px" viewBox="0 0 48 33" version="1.1" xmlns="http://www.w3.org/2000/svg" xmlns:xlink="http://www.w3.org/1999/xlink">
    <title>Group</title>
    <g id="Symbols" stroke="none" stroke-width="1" fill="none" fill-rule="evenodd" opacity="0.4">
        <g id="player-UI-(swiper)-scaled--dynamic-pagination" transform="translate(-761.000000, -18.000000)">
            <g id="Group-2" transform="translate(761.000000, 18.000000)">
                <rect id="Rectangle" stroke="#444444" stroke-width="3" x="10.5666667" y="7.6875" width="26.8666667" height="17.625" rx="1"></rect>
                <g id="Group" fill="#444444">
                    <path d="M1.53333333,0 L13.4,0 C13.9522847,-1.01453063e-16 14.4,0.44771525 14.4,1 L14.4,2.09375 C14.4,2.64603475 13.9522847,3.09375 13.4,3.09375 L0.533333333,3.09375 L0.533333333,3.09375 L0.533333333,1 C0.533333333,0.44771525 0.981048584,3.23497668e-16 1.53333333,0 Z" id="Rectangle"></path>
                    <path d="M-2.50729167,4.071875 L5.77395833,4.071875 C6.32624308,4.071875 6.77395833,4.51959025 6.77395833,5.071875 L6.77395833,6.271875 C6.77395833,6.82415975 6.32624308,7.271875 5.77395833,7.271875 L-2.50729167,7.271875 L-2.50729167,7.271875 L-2.50729167,4.071875 Z" id="Rectangle-Copy" transform="translate(2.133333, 5.671875) rotate(90.000000) translate(-2.133333, -5.671875) "></path>
                </g>
                <g id="Group-Copy-2" transform="translate(7.466667, 27.843750) scale(1, -1) translate(-7.466667, -27.843750) translate(0.000000, 22.687500)" fill="#444444">
                    <path d="M1.53333333,0 L13.4,0 C13.9522847,-1.01453063e-16 14.4,0.44771525 14.4,1 L14.4,2.09375 C14.4,2.64603475 13.9522847,3.09375 13.4,3.09375 L0.533333333,3.09375 L0.533333333,3.09375 L0.533333333,1 C0.533333333,0.44771525 0.981048584,3.23497668e-16 1.53333333,0 Z" id="Rectangle"></path>
                    <path d="M-2.50729167,4.071875 L5.77395833,4.071875 C6.32624308,4.071875 6.77395833,4.51959025 6.77395833,5.071875 L6.77395833,6.271875 C6.77395833,6.82415975 6.32624308,7.271875 5.77395833,7.271875 L-2.50729167,7.271875 L-2.50729167,7.271875 L-2.50729167,4.071875 Z" id="Rectangle-Copy" transform="translate(2.133333, 5.671875) rotate(90.000000) translate(-2.133333, -5.671875) "></path>
                </g>
                <g id="Group-Copy" transform="translate(40.533333, 5.156250) scale(-1, 1) translate(-40.533333, -5.156250) translate(33.066667, 0.000000)" fill="#444444">
                    <path d="M1.53333333,0 L13.4,0 C13.9522847,-1.01453063e-16 14.4,0.44771525 14.4,1 L14.4,2.09375 C14.4,2.64603475 13.9522847,3.09375 13.4,3.09375 L0.533333333,3.09375 L0.533333333,3.09375 L0.533333333,1 C0.533333333,0.44771525 0.981048584,3.23497668e-16 1.53333333,0 Z" id="Rectangle"></path>
                    <path d="M-2.50729167,4.071875 L5.77395833,4.071875 C6.32624308,4.071875 6.77395833,4.51959025 6.77395833,5.071875 L6.77395833,6.271875 C6.77395833,6.82415975 6.32624308,7.271875 5.77395833,7.271875 L-2.50729167,7.271875 L-2.50729167,7.271875 L-2.50729167,4.071875 Z" id="Rectangle-Copy" transform="translate(2.133333, 5.671875) rotate(90.000000) translate(-2.133333, -5.671875) "></path>
                </g>
                <g id="Group-Copy-3" transform="translate(40.533333, 27.843750) scale(-1, -1) translate(-40.533333, -27.843750) translate(33.066667, 22.687500)" fill="#444444">
                    <path d="M1.53333333,0 L13.4,0 C13.9522847,-1.01453063e-16 14.4,0.44771525 14.4,1 L14.4,2.09375 C14.4,2.64603475 13.9522847,3.09375 13.4,3.09375 L0.533333333,3.09375 L0.533333333,3.09375 L0.533333333,1 C0.533333333,0.44771525 0.981048584,3.23497668e-16 1.53333333,0 Z" id="Rectangle"></path>
                    <path d="M-2.50729167,4.071875 L5.77395833,4.071875 C6.32624308,4.071875 6.77395833,4.51959025 6.77395833,5.071875 L6.77395833,6.271875 C6.77395833,6.82415975 6.32624308,7.271875 5.77395833,7.271875 L-2.50729167,7.271875 L-2.50729167,7.271875 L-2.50729167,4.071875 Z" id="Rectangle-Copy" transform="translate(2.133333, 5.671875) rotate(90.000000) translate(-2.133333, -5.671875) "></path>
                </g>
            </g>
        </g>
    </g>
</svg>