<?xml version="1.0" encoding="UTF-8"?>
<svg width="115px" height="34px" viewBox="0 0 115 34" version="1.1" xmlns="http://www.w3.org/2000/svg" xmlns:xlink="http://www.w3.org/1999/xlink">
    <title>HMX logo (black 40%)</title>
    <g id="Symbols" stroke="none" stroke-width="1" fill="none" fill-rule="evenodd" opacity="0.402646019">
        <g id="player-UI-full---dark-(home-+-volume-+-expand)-Copy" transform="translate(-20.000000, -18.000000)" fill="#444444">
            <path d="M44,50 L48,50 L48,37 L44,37 L44,50 Z M49.0998565,52 L43.0869387,52 C42.5948329,52 42.1960221,51.6017045 42.1960221,51.1102344 L42.1960221,37.4222818 L27.7204224,37.4222818 L27.7204224,51.1102344 C27.7204224,51.6017045 27.3216116,52 26.8295058,52 L20.8909165,52 C20.3988107,52 20,51.6017045 20,51.1102344 L20,18.8897656 C20,18.3982955 20.3988107,18 20.8909165,18 L26.8295058,18 C27.3216116,18 27.7204224,18.3982955 27.7204224,18.8897656 L27.7204224,30.7213949 C27.7204224,31.212865 27.3216116,31.6111605 26.8295058,31.6111605 C26.3374,31.6111605 25.9385893,31.212865 25.9385893,30.7213949 L25.9385893,19.7790192 L21.7818331,19.7790192 L21.7818331,50.2204689 L25.9385893,50.2204689 L25.9385893,36.5330282 C25.9385893,36.0415581 26.3374,35.6432626 26.8295058,35.6432626 L42.1960221,35.6432626 L42.1960221,18.8897656 C42.1960221,18.3982955 42.5948329,18 43.0869387,18 L49.1090835,18 C49.6011893,18 50,18.3982955 50,18.8897656 C50,19.3812356 49.6011893,19.7790192 49.1090835,19.7790192 L43.9778552,19.7790192 L43.9778552,35.6432626 L49.0998565,35.6432626 C49.5919623,35.6432626 49.990773,36.0415581 49.990773,36.5330282 L49.990773,51.1102344 C49.990773,51.6017045 49.5919623,52 49.0998565,52 Z M117,29.4338759 L120.116824,33 L132,19 L126.118557,19 L117,29.4338759 Z M125.539903,50 L132,50 L120.119197,36 L117,39.7834993 L125.539903,50 Z M134.11407,52 L125.331656,52 C125.073319,52 124.828231,51.8863476 124.660083,51.6902715 L115.404817,40.8651318 C115.121004,40.5333895 115.118966,40.0434553 115.400231,39.7101772 L119.166743,35.2434313 L116.033588,31.6347101 L99.9015839,50.2204689 L106.775265,50.2204689 C107.264422,50.2204689 107.660844,50.6192763 107.660844,51.1097225 C107.660844,51.6011925 107.264422,52 106.775265,52 L97.9546354,52 C97.6071298,52 97.2922347,51.7962447 97.1485447,51.478325 C97.0043452,51.1609173 97.0588659,50.7882192 97.2871393,50.5255899 L114.858591,30.2811197 L105.742429,19.7795311 L99.798657,19.7795311 L108.183121,29.7287278 C108.499545,30.1034737 108.454196,30.6645687 108.081213,30.9830003 C107.70874,31.30092 107.150285,31.2543327 106.832843,30.8811227 L97.2107085,19.4651951 C96.9870209,19.2015419 96.937086,18.8308915 97.0817951,18.5155316 C97.2270137,18.2011955 97.5403802,18 97.8853381,18 L106.144965,18 C106.401263,18 106.643804,18.1116047 106.811952,18.305121 L116.033588,28.9280412 L125.254715,18.305121 C125.422863,18.1116047 125.665913,18 125.921702,18 L134.11407,18 C134.459028,18 134.772394,18.2011955 134.918122,18.5155316 C135.062831,18.8298676 135.012896,19.200518 134.790228,19.4646831 L121.501451,35.226537 L134.781566,50.5255899 C135.009839,50.7882192 135.06436,51.1609173 134.92067,51.478325 C134.77698,51.7962447 134.461575,52 134.11407,52 Z M86,50 L90,50 L90,28 L86,32.911801 L86,50 Z M91.1182762,52 L85.1709531,52 C84.683925,52 84.2892293,51.6011925 84.2892293,51.1097225 L84.2892293,34.9342147 L76.2903003,44.4922831 C76.1173039,44.6985982 75.8555263,44.8142984 75.592734,44.8071311 C75.3243613,44.8004758 75.0747594,44.6699291 74.9134313,44.453887 L57.7634475,21.5437038 L57.7634475,50.2204689 L61.9508744,50.2204689 L61.9508744,36.5043591 C61.9508744,36.012889 62.3450628,35.6145935 62.8325982,35.6145935 C63.3196263,35.6145935 63.714322,36.012889 63.714322,36.5043591 L63.714322,51.1097225 C63.714322,51.6011925 63.3196263,52 62.8325982,52 L56.8822311,52 C56.395203,52 56,51.6011925 56,51.1097225 L56,18.8897656 C56,18.5073404 56.2424994,18.1679189 56.6021899,18.0460753 C56.9593439,17.9247436 57.3565761,18.0486351 57.5853779,18.3532441 L75.6551345,42.4931263 L84.2892293,32.1758391 L84.2892293,18.8897656 C84.2892293,18.3982955 84.683925,18 85.1709531,18 L91.1182762,18 C91.6053043,18 92,18.3982955 92,18.8897656 C92,19.3807237 91.6053043,19.7795311 91.1182762,19.7795311 L86.0526768,19.7795311 L86.0526768,30.0691732 L90.4450614,24.8201707 C90.6835022,24.5355277 91.0731247,24.4305784 91.4211468,24.5585653 C91.7686617,24.6870643 92,25.0208544 92,25.3945764 L92,51.1097225 C92,51.6011925 91.6053043,52 91.1182762,52 L91.1182762,52 Z" id="HMX-logo-(black-40%)"></path>
        </g>
    </g>
</svg>