<?xml version="1.0" encoding="UTF-8"?>
<svg width="51px" height="16px" viewBox="0 0 51 16" version="1.1" xmlns="http://www.w3.org/2000/svg" xmlns:xlink="http://www.w3.org/1999/xlink">
    <title>HMX logo (black 40%)</title>
    <g id="Symbols" stroke="none" stroke-width="1" fill="none" fill-rule="evenodd" opacity="0.6">
        <g id="player-UI-full---dark-(home-+-volume-+-expand)-Copy" transform="translate(-20.000000, -10.000000)" fill="#FFFFFF">
            <path d="M30.5882353,24.4075021 L32.3529412,24.4075021 L32.3529412,18.672208 L30.5882353,18.672208 L30.5882353,24.4075021 Z M32.838172,25.2898551 L30.1854141,25.2898551 C29.9683086,25.2898551 29.7923627,25.1141365 29.7923627,24.8973114 L29.7923627,18.8585088 L23.4060687,18.8585088 L23.4060687,24.8973114 C23.4060687,25.1141365 23.2301228,25.2898551 23.0130173,25.2898551 L20.3930514,25.2898551 C20.1759459,25.2898551 20,25.1141365 20,24.8973114 L20,10.6823987 C20,10.4655737 20.1759459,10.2898551 20.3930514,10.2898551 L23.0130173,10.2898551 C23.2301228,10.2898551 23.4060687,10.4655737 23.4060687,10.6823987 L23.4060687,15.9022352 C23.4060687,16.1190602 23.2301228,16.2947788 23.0130173,16.2947788 C22.7959118,16.2947788 22.6199659,16.1190602 22.6199659,15.9022352 L22.6199659,11.0747165 L20.7861028,11.0747165 L20.7861028,24.5047678 L22.6199659,24.5047678 L22.6199659,18.466191 C22.6199659,18.249366 22.7959118,18.0736474 23.0130173,18.0736474 L29.7923627,18.0736474 L29.7923627,10.6823987 C29.7923627,10.4655737 29.9683086,10.2898551 30.1854141,10.2898551 L32.8422427,10.2898551 C33.0593482,10.2898551 33.2352941,10.4655737 33.2352941,10.6823987 C33.2352941,10.8992237 33.0593482,11.0747165 32.8422427,11.0747165 L30.5784655,11.0747165 L30.5784655,18.0736474 L32.838172,18.0736474 C33.0552775,18.0736474 33.2312234,18.249366 33.2312234,18.466191 L33.2312234,24.8973114 C33.2312234,25.1141365 33.0552775,25.2898551 32.838172,25.2898551 Z M62.7941176,15.3342121 L64.1691869,16.9075021 L69.4117647,10.7310315 L66.8170102,10.7310315 L62.7941176,15.3342121 Z M66.5617219,24.4075021 L69.4117647,24.4075021 L64.170234,18.2310315 L62.7941176,19.9002224 L66.5617219,24.4075021 Z M70.3444425,25.2898551 L66.4698481,25.2898551 C66.3558762,25.2898551 66.247749,25.2397143 66.1735661,25.1532101 L62.0903605,20.3774132 C61.9651488,20.2310563 61.9642496,20.0149089 62.0883373,19.8678744 L63.7500339,17.8972512 L62.3677595,16.3051683 L55.2506988,24.5047678 L58.2832051,24.5047678 C58.4990098,24.5047678 58.6739016,24.6807123 58.6739016,24.8970856 C58.6739016,25.1139106 58.4990098,25.2898551 58.2832051,25.2898551 L54.3917509,25.2898551 C54.2384396,25.2898551 54.0995153,25.199963 54.0361227,25.0597043 C53.9725052,24.9196715 53.9965585,24.7552459 54.0972673,24.63938 L61.8493785,15.7079961 L57.8275423,11.0749423 L55.2052898,11.0749423 L58.9043181,15.4642938 C59.0439168,15.6296229 59.0239099,15.8771648 58.8593588,16.0176493 C58.6950325,16.157908 58.4486554,16.1373548 58.3086071,15.9727033 L54.0635479,10.9362647 C53.9648621,10.8199471 53.9428321,10.6564249 54.0066743,10.5172955 C54.0707413,10.3786178 54.2089913,10.2898551 54.3611786,10.2898551 L58.0051317,10.2898551 C58.1182043,10.2898551 58.2252075,10.3390924 58.2993904,10.4244673 L62.3677595,15.1110497 L66.4359038,10.4244673 C66.5100867,10.3390924 66.6173147,10.2898551 66.7301626,10.2898551 L70.3444425,10.2898551 C70.4966298,10.2898551 70.6348797,10.3786178 70.6991715,10.5172955 C70.7630138,10.6559732 70.7409837,10.8194954 70.6427476,10.9360388 L64.7800519,17.8897979 L70.638926,24.63938 C70.7396349,24.7552459 70.7636882,24.9196715 70.7002955,25.0597043 C70.6369029,25.199963 70.4977538,25.2898551 70.3444425,25.2898551 Z M49.1176471,24.4075021 L50.8823529,24.4075021 L50.8823529,14.7016198 L49.1176471,16.8685908 L49.1176471,24.4075021 Z M51.3757101,25.2898551 L48.7518911,25.2898551 C48.5370257,25.2898551 48.3628953,25.1139106 48.3628953,24.8970856 L48.3628953,17.7608321 L44.833956,21.977627 C44.7576341,22.0686484 44.6421439,22.1196926 44.5262062,22.1165306 C44.4078064,22.1135944 44.297688,22.0560003 44.2265138,21.9606876 L36.6603445,11.8532538 L36.6603445,24.5047678 L38.5077387,24.5047678 L38.5077387,18.4535429 C38.5077387,18.2367179 38.6816453,18.0609993 38.8967345,18.0609993 C39.1115998,18.0609993 39.2857303,18.2367179 39.2857303,18.4535429 L39.2857303,24.8970856 C39.2857303,25.1139106 39.1115998,25.2898551 38.8967345,25.2898551 L36.2715725,25.2898551 C36.0567072,25.2898551 35.8823529,25.1139106 35.8823529,24.8970856 L35.8823529,10.6823987 C35.8823529,10.5136817 35.989338,10.363937 36.148025,10.3101824 C36.3055929,10.2566537 36.4808424,10.3113117 36.5817844,10.4456981 L44.5537358,21.0956461 L48.3628953,16.5439017 L48.3628953,10.6823987 C48.3628953,10.4655737 48.5370257,10.2898551 48.7518911,10.2898551 L51.3757101,10.2898551 C51.5905754,10.2898551 51.7647059,10.4655737 51.7647059,10.6823987 C51.7647059,10.8989979 51.5905754,11.0749423 51.3757101,11.0749423 L49.1408868,11.0749423 L49.1408868,15.6144903 L51.0787035,13.2987539 C51.183898,13.1731761 51.3557903,13.1268749 51.5093295,13.1833398 C51.6626448,13.2400305 51.7647059,13.3872908 51.7647059,13.5521682 L51.7647059,24.8970856 C51.7647059,25.1139106 51.5905754,25.2898551 51.3757101,25.2898551 L51.3757101,25.2898551 Z" id="HMX-logo-(black-40%)"></path>
        </g>
    </g>
</svg>