<?xml version="1.0" encoding="UTF-8"?>
<svg width="25px" height="17px" viewBox="0 0 25 17" version="1.1" xmlns="http://www.w3.org/2000/svg" xmlns:xlink="http://www.w3.org/1999/xlink">
    <title>home copy 2</title>
    <g id="home-copy-2" stroke="none" stroke-width="1" fill="none" fill-rule="evenodd">
        <g id="Group-3" transform="translate(1.636876, 0.784738)" fill="#FFFFFF">
            <g id="Group-5">
                <g id="Group-6" transform="translate(17.884902, 11.532896) scale(-1, 1) translate(-17.884902, -11.532896) translate(17.134902, 7.532896)">
                    <polygon id="Rectangle-Copy-4" transform="translate(0.750000, 4.000000) rotate(90.000000) translate(-0.750000, -4.000000) " points="-3.25 3.25 4.58673469 3.25 4.75 4.75 -2.54270118 4.75"></polygon>
                </g>
                <path d="M-0.871966347,5.07282321 L12.5353331,5.20869835 C12.9528028,5.21292916 13.2970203,5.53709048 13.3262753,5.95355535 C13.3527197,6.33001165 13.0689791,6.65662728 12.6925228,6.68307177 C12.6746821,6.68432501 12.656799,6.68487733 12.6389149,6.68472747 L-0.871954167,6.57150751 C-1.28716589,6.56802807 -1.62192783,6.23044909 -1.62192783,5.81522279 C-1.62192783,5.40518577 -1.28952715,5.07278509 -0.879490132,5.07278509 C-0.876982155,5.07278509 -0.874474195,5.07279779 -0.871966347,5.07282321 Z" id="Rectangle" transform="translate(5.878072, 5.878072) rotate(-45.000000) translate(-5.878072, -5.878072) "></path>
                <path d="M8.73791169,5.18220941 L22.2280516,5.24185878 C22.6280727,5.24362755 22.9547191,5.56211328 22.9666059,5.96196168 C22.9780321,6.34631601 22.6757141,6.66715952 22.2913598,6.67858571 C22.2844653,6.67879067 22.2775683,6.67889316 22.2706708,6.67889316 L8.73791902,6.67889316 C8.32370546,6.67889316 7.98791902,6.34310672 7.98791902,5.92889316 C7.98791902,5.51650708 8.32222399,5.18220211 8.73461007,5.18220211 C8.73571062,5.18220211 8.73681116,5.18220454 8.73791169,5.18220941 Z" id="Rectangle-Copy" transform="translate(15.487919, 5.928893) rotate(45.000000) translate(-15.487919, -5.928893) "></path>
                <polygon id="Rectangle-Copy-3" transform="translate(3.384366, 11.532896) rotate(90.000000) translate(-3.384366, -11.532896) " points="-0.615634372 10.7828963 7.22110032 10.7828963 7.38436563 12.2828963 0.0916644441 12.2828963"></polygon>
            </g>
            <g id="Group-4" transform="translate(2.634366, 7.532896)">
                <rect id="Rectangle-Copy-5" x="0" y="7.25" width="6" height="1.5"></rect>
                <polygon id="Rectangle-Copy-6" transform="translate(5.750000, 5.750000) rotate(90.000000) translate(-5.750000, -5.750000) " points="2.75 5 8.75 5 8.75 6.5 2.75 6.5"></polygon>
                <polygon id="Rectangle-Copy-7" points="5 2.5 11.5 2.5 11.5 4.07320458 5 4.07320458"></polygon>
            </g>
            <g id="Group-4-Copy" transform="translate(12.634366, 10.282896)">
                <rect id="Rectangle-Copy-5" x="0" y="4.5" width="6" height="1.5"></rect>
                <polygon id="Rectangle-Copy-3" transform="translate(0.750000, 2.709677) rotate(90.000000) translate(-0.750000, -2.709677) " points="-1.95967742 1.95967742 3.34907834 1.95967742 3.45967742 3.45967742 -1.95967742 3.45967742"></polygon>
            </g>
        </g>
    </g>
</svg>