<?xml version="1.0" encoding="UTF-8"?>
<svg width="35px" height="31px" viewBox="0 0 35 31" version="1.1" xmlns="http://www.w3.org/2000/svg" xmlns:xlink="http://www.w3.org/1999/xlink">
    <title>hamburger menu - wistia style</title>
    <defs>
        <path d="M10.2083105,1.828125 L10.2083105,7.296875 C10.2083105,8.20297852 9.47378906,8.9375 8.56768555,8.9375 L1.640625,8.9375 C0.734521484,8.9375 0,8.20297852 0,7.296875 L0,1.828125 C0,0.922021484 0.734521484,0.1875 1.640625,0.1875 L8.56768555,0.1875 C9.47378906,0.1875 10.2083105,0.922021484 10.2083105,1.828125 Z M22.6041895,18.234375 L22.6041895,12.765625 C22.6041895,11.8595215 21.869668,11.125 20.9635645,11.125 L14.0364355,11.125 C13.130332,11.125 12.3958105,11.8595215 12.3958105,12.765625 L12.3958105,18.234375 C12.3958105,19.1404785 13.130332,19.875 14.0364355,19.875 L20.9634961,19.875 C21.869668,19.875 22.6041895,19.1404785 22.6041895,18.234375 L22.6041895,18.234375 Z M24.7916895,1.828125 L24.7916895,7.296875 C24.7916895,8.20297852 25.5262109,8.9375 26.4323145,8.9375 L33.359375,8.9375 C34.2654785,8.9375 35,8.20297852 35,7.296875 L35,1.828125 C35,0.922021484 34.2654785,0.1875 33.359375,0.1875 L26.4323145,0.1875 C25.5262109,0.1875 24.7916895,0.922021484 24.7916895,1.828125 L24.7916895,1.828125 Z M22.6041895,7.296875 L22.6041895,1.828125 C22.6041895,0.922021484 21.869668,0.1875 20.9635645,0.1875 L14.0364355,0.1875 C13.130332,0.1875 12.3958105,0.922021484 12.3958105,1.828125 L12.3958105,7.296875 C12.3958105,8.20297852 13.130332,8.9375 14.0364355,8.9375 L20.9634961,8.9375 C21.869668,8.9375 22.6041895,8.20297852 22.6041895,7.296875 L22.6041895,7.296875 Z M8.56768555,11.125 L1.640625,11.125 C0.734521484,11.125 0,11.8595215 0,12.765625 L0,18.234375 C0,19.1404785 0.734521484,19.875 1.640625,19.875 L8.56768555,19.875 C9.47378906,19.875 10.2083105,19.1404785 10.2083105,18.234375 L10.2083105,12.765625 C10.2083105,11.8595215 9.47378906,11.125 8.56768555,11.125 L8.56768555,11.125 Z M0,23.703125 L0,29.171875 C0,30.0779785 0.734521484,30.8125 1.640625,30.8125 L8.56768555,30.8125 C9.47378906,30.8125 10.2083105,30.0779785 10.2083105,29.171875 L10.2083105,23.703125 C10.2083105,22.7970215 9.47378906,22.0625 8.56768555,22.0625 L1.640625,22.0625 C0.734521484,22.0625 0,22.7970215 0,23.703125 Z M26.4323145,19.875 L33.359375,19.875 C34.2654785,19.875 35,19.1404785 35,18.234375 L35,12.765625 C35,11.8595215 34.2654785,11.125 33.359375,11.125 L26.4323145,11.125 C25.5262109,11.125 24.7916895,11.8595215 24.7916895,12.765625 L24.7916895,18.234375 C24.7916895,19.1404785 25.5262109,19.875 26.4323145,19.875 Z M26.4323145,30.8125 L33.359375,30.8125 C34.2654785,30.8125 35,30.0779785 35,29.171875 L35,23.703125 C35,22.7970215 34.2654785,22.0625 33.359375,22.0625 L26.4323145,22.0625 C25.5262109,22.0625 24.7916895,22.7970215 24.7916895,23.703125 L24.7916895,29.171875 C24.7916895,30.0779785 25.5262109,30.8125 26.4323145,30.8125 Z M12.3958105,23.703125 L12.3958105,29.171875 C12.3958105,30.0779785 13.130332,30.8125 14.0364355,30.8125 L20.9634961,30.8125 C21.8695996,30.8125 22.6041211,30.0779785 22.6041211,29.171875 L22.6041211,23.703125 C22.6041211,22.7970215 21.8695996,22.0625 20.9634961,22.0625 L14.0364355,22.0625 C13.130332,22.0625 12.3958105,22.7970215 12.3958105,23.703125 Z" id="path-1"></path>
    </defs>
    <g id="Symbols" stroke="none" stroke-width="1" fill="none" fill-rule="evenodd" opacity="0.404901414">
        <g id="player-UI-(swiper)-scaled-transparent" transform="translate(-699.000000, -19.000000)">
            <g id="Solid/th" transform="translate(699.000000, 19.000000)">
                <mask id="mask-2" fill="white">
                    <use xlink:href="#path-1"></use>
                </mask>
                <g id="Mask"></g>
                <g id="🎨-color" mask="url(#mask-2)" fill="#444444">
                    <g transform="translate(0.000000, -2.000000)" id="Black">
                        <rect x="0" y="0" width="35" height="35"></rect>
                    </g>
                </g>
            </g>
        </g>
    </g>
</svg>