<?xml version="1.0" encoding="UTF-8"?>
<svg width="18px" height="16px" viewBox="0 0 18 16" version="1.1" xmlns="http://www.w3.org/2000/svg" xmlns:xlink="http://www.w3.org/1999/xlink">
    <title>hamburger menu - wistia style</title>
    <defs>
        <path d="M3.94284834,0.633673469 L3.94284834,2.74591837 C3.94284834,3.09589094 3.65914745,3.37959184 3.30917487,3.37959184 L0.633673469,3.37959184 C0.283700893,3.37959184 0,3.09589094 0,2.74591837 L0,0.633673469 C0,0.283700893 0.283700893,0 0.633673469,0 L3.30917487,0 C3.65914745,0 3.94284834,0.283700893 3.94284834,0.633673469 Z M3.94284834,13.1822449 L3.94284834,15.2944898 C3.94284834,15.6444624 3.65914745,15.9281633 3.30917487,15.9281633 L0.633673469,15.9281633 C0.283700893,15.9281633 0,15.6444624 0,15.2944898 L0,13.1822449 C0,12.8322723 0.283700893,12.5485714 0.633673469,12.5485714 L3.30917487,12.5485714 C3.65914745,12.5485714 3.94284834,12.8322723 3.94284834,13.1822449 Z M3.94284834,6.90795918 L3.94284834,9.02020408 C3.94284834,9.37017666 3.65914745,9.65387755 3.30917487,9.65387755 L0.633673469,9.65387755 C0.283700893,9.65387755 0,9.37017666 0,9.02020408 L0,6.90795918 C0,6.55798661 0.283700893,6.27428571 0.633673469,6.27428571 L3.30917487,6.27428571 C3.65914745,6.27428571 3.94284834,6.55798661 3.94284834,6.90795918 Z M13.6898047,0.633673469 L13.6898047,2.74591837 C13.6898047,3.09589094 13.9735056,3.37959184 14.3234782,3.37959184 L16.9989796,3.37959184 C17.3489522,3.37959184 17.6326531,3.09589094 17.6326531,2.74591837 L17.6326531,0.633673469 C17.6326531,0.283700893 17.3489522,0 16.9989796,0 L14.3234782,0 C13.9735056,0 13.6898047,0.283700893 13.6898047,0.633673469 L13.6898047,0.633673469 Z M13.6898047,13.1822449 L13.6898047,15.2944898 C13.6898047,15.6444624 13.9735056,15.9281633 14.3234782,15.9281633 L16.9989796,15.9281633 C17.3489522,15.9281633 17.6326531,15.6444624 17.6326531,15.2944898 L17.6326531,13.1822449 C17.6326531,12.8322723 17.3489522,12.5485714 16.9989796,12.5485714 L14.3234782,12.5485714 C13.9735056,12.5485714 13.6898047,12.8322723 13.6898047,13.1822449 L13.6898047,13.1822449 Z M13.6868659,6.90795918 L13.6868659,9.02020408 C13.6868659,9.37017666 13.9705668,9.65387755 14.3205394,9.65387755 L16.9960408,9.65387755 C17.3460134,9.65387755 17.6297143,9.37017666 17.6297143,9.02020408 L17.6297143,6.90795918 C17.6297143,6.55798661 17.3460134,6.27428571 16.9960408,6.27428571 L14.3205394,6.27428571 C13.9705668,6.27428571 13.6868659,6.55798661 13.6868659,6.90795918 L13.6868659,6.90795918 Z M10.7877639,2.74591837 L10.7877639,0.633673469 C10.7877639,0.283700893 10.504063,0 10.1540904,0 L7.47856263,0 C7.12859005,0 6.84488916,0.283700893 6.84488916,0.633673469 L6.84488916,2.74591837 C6.84488916,3.09589094 7.12859005,3.37959184 7.47856263,3.37959184 L10.154064,3.37959184 C10.504063,3.37959184 10.7877639,3.09589094 10.7877639,2.74591837 L10.7877639,2.74591837 Z M10.7877639,13.1822449 C10.7877639,12.8322723 10.504063,12.5485714 10.1540904,12.5485714 L7.47856263,12.5485714 C7.12859005,12.5485714 6.84488916,12.8322723 6.84488916,13.1822449 L6.84488916,15.2944898 C6.84488916,15.6444624 7.12859005,15.9281633 7.47856263,15.9281633 L10.154064,15.9281633 C10.504063,15.9281633 10.7877639,15.6444624 10.7877639,15.2944898 L10.7877639,13.1822449 Z M10.7862945,9.02020408 L10.7862945,6.90795918 C10.7862945,6.55798661 10.5025936,6.27428571 10.152621,6.27428571 L7.47709324,6.27428571 C7.12712066,6.27428571 6.84341977,6.55798661 6.84341977,6.90795918 L6.84341977,9.02020408 C6.84341977,9.37017666 7.12712066,9.65387755 7.47709324,9.65387755 L10.1525946,9.65387755 C10.5025936,9.65387755 10.7862945,9.37017666 10.7862945,9.02020408 L10.7862945,9.02020408 Z" id="path-1"></path>
    </defs>
    <g id="Symbols" stroke="none" stroke-width="1" fill="none" fill-rule="evenodd">
        <g id="player-UI-(swiper)-scaled-dark" transform="translate(-761.000000, -9.000000)">
            <g id="Group-3" transform="translate(761.000000, 9.000000)">
                <g id="Solid/th" transform="translate(0.000000, 0.000000)">
                    <mask id="mask-2" fill="white">
                        <use xlink:href="#path-1"></use>
                    </mask>
                    <g id="Mask"></g>
                    <g id="🎨-color" mask="url(#mask-2)" fill="#FFFFFF">
                        <g transform="translate(-0.000000, -1.028571)" id="Black">
                            <rect x="0" y="0" width="18" height="18"></rect>
                        </g>
                    </g>
                </g>
            </g>
        </g>
    </g>
</svg>